<?xml version="1.0" encoding="UTF-8"?>
<svg id="_图层_1" data-name="图层_1" xmlns="http://www.w3.org/2000/svg" version="1.1" viewBox="0 0 1366 768">
  <!-- Generator: Adobe Illustrator 29.6.1, SVG Export Plug-In . SVG Version: 2.1.1 Build 9)  -->
  <defs>
    <style>
      .st0 {
        fill: #231815;
      }
    </style>
  </defs>
  <path class="st0" d="M507.4,188.94l-165.38,380.17,4.85,9.96h54.26l45.99-105.73h129.47l43.7,100.46,2.28,5.27h54.54l4.44-10.27-165.23-379.85h-8.92ZM478.85,400.41l33.01-75.88,33.01,75.88h-66.02Z"/>
  <path class="st0" d="M357.99,512.01c-15.64-12.93-31.28-25.85-46.92-38.77-24.4,26.26-59.33,43.8-99.03,46.41h0c-28.6,1.88-55.78-4.26-79.08-16.37,31.06-33.42,214.41-230.71,228.44-245.81-6.62-7.38-13.81-14.29-21.5-20.65-7.69-6.35-15.89-12.17-24.52-17.39-35.84-21.66-79.17-33.03-125.05-30.01-56.95,3.74-107.08,28.92-142.07,66.57,15.63,12.93,31.28,25.85,46.91,38.78,24.4-26.26,59.34-43.8,99.04-46.41,28.6-1.88,55.78,4.25,79.06,16.38-31.05,33.41-214.39,230.7-228.43,245.79,6.62,7.38,13.81,14.29,21.5,20.65,7.69,6.35,15.89,12.17,24.52,17.38,35.83,21.68,79.16,33.04,125.05,30.02,56.94-3.74,107.07-28.91,142.07-66.57Z"/>
  <polygon class="st0" points="951.56 430.9 764.81 188.94 764.16 188.94 707.67 188.94 707.67 189.07 707.67 579.06 764.16 579.06 764.16 336.44 951.43 579.06 951.56 579.06 1008.67 579.06 1008.77 579.06 1008.77 188.94 951.56 188.94 951.56 430.9"/>
  <polygon class="st0" points="1321.15 188.94 1249.4 188.94 1126.49 311.84 1126.49 188.94 1066.35 188.94 1066.35 579.06 1126.49 579.06 1126.49 456.62 1248.94 579.06 1320.19 579.06 1131.87 384 1321.15 188.94"/>
</svg>