<?xml version="1.0" encoding="UTF-8"?>
<svg id="_图层_1" xmlns="http://www.w3.org/2000/svg" version="1.1" viewBox="0 0 595.28 841.89">
  <!-- Generator: Adobe Illustrator 29.6.1, SVG Export Plug-In . SVG Version: 2.1.1 Build 9)  -->
  <defs>
    <style>
      .st0 {
        fill: #231815;
      }
    </style>
  </defs>
  <path class="st0" d="M305.87,658.11c-50.01,3.29-97.53-7.43-138.26-28.62,54.31-58.44,374.88-403.38,399.42-429.78-11.58-12.91-24.15-24.99-37.59-36.1-13.44-11.11-27.78-21.28-42.87-30.41-62.66-37.87-138.42-57.75-218.64-52.47-99.57,6.54-187.22,50.56-248.41,116.4,27.33,22.61,54.69,45.2,82.02,67.8,42.67-45.91,103.76-76.58,173.17-81.14,50.01-3.29,97.53,7.43,138.24,28.64-54.29,58.42-374.86,403.36-399.4,429.76,11.58,12.91,24.15,24.99,37.59,36.1,13.44,11.11,27.78,21.28,42.87,30.39,62.64,37.9,138.4,57.77,218.64,52.49,99.55-6.54,187.2-50.55,248.41-116.4-27.35-22.61-54.69-45.2-82.04-67.79-42.67,45.91-103.74,76.58-173.15,81.14h0Z"/>
</svg>